<svg width="40" height="40" viewBox="150 0 51 50" fill="none" xmlns="http://www.w3.org/2000/svg">
<path d="M191.188 30.142C190.938 30.6057 190.438 30.7967 189.989 30.6603C189.114 30.3875 188.24 30.0601 187.365 29.8146C186.49 29.5418 185.616 29.2691 184.766 29.0235C183.017 28.5325 181.268 28.096 179.494 27.7414H179.469C178.645 27.5777 178.07 26.7321 178.22 25.8046C178.245 25.6136 178.32 25.45 178.395 25.2863C179.27 23.595 180.169 22.0946 181.168 20.5943C182.143 19.0939 183.192 17.6754 184.317 16.3114C184.691 15.8477 185.366 15.8204 185.791 16.2296C186.141 16.5842 186.216 17.1571 186.016 17.5936C185.266 19.203 184.417 20.7579 183.567 22.2856L182.318 24.577C182.268 24.6861 182.193 24.768 182.143 24.8771C183.317 25.1772 184.467 25.5591 185.591 25.9956C186.49 26.3229 187.365 26.7321 188.24 27.1413C189.114 27.5777 189.964 28.0142 190.788 28.5325C191.288 28.8871 191.463 29.5964 191.188 30.142Z" fill="#5A539E"/>
<path d="M169.205 27.576C169.055 27.658 168.906 27.7126 168.731 27.7399H168.706C166.936 28.0951 165.19 28.5323 163.444 29.0241C162.572 29.27 161.699 29.5432 160.826 29.8164C159.953 30.0623 159.105 30.3902 158.208 30.6634C157.659 30.8274 157.085 30.4722 156.911 29.8711C156.786 29.352 156.986 28.8328 157.385 28.5596C158.208 28.0405 159.08 27.6033 159.928 27.1662C160.801 26.7563 161.674 26.3465 162.597 26.0186C163.719 25.5814 164.866 25.2263 166.038 24.8984C165.988 24.7891 165.913 24.7071 165.863 24.5978L164.616 22.3027C163.769 20.7727 162.946 19.188 162.173 17.6033C161.898 17.0568 162.098 16.3464 162.621 16.0732C163.045 15.8273 163.569 15.9366 163.868 16.3191C165.015 17.6852 166.038 19.106 167.01 20.6087C168.008 22.1115 168.93 23.6142 169.778 25.3355C170.227 26.1006 169.953 27.1388 169.205 27.576Z" fill="#532E7B"/>
<path d="M182.326 47.0431C181.794 47.2035 181.207 47.0431 180.927 46.6533C180.283 45.7822 179.668 44.911 179.024 44.017L177.177 41.3806L175.33 38.7442C175.19 38.5379 175.051 38.3545 174.911 38.1482C174.771 38.3545 174.631 38.5608 174.491 38.7442L172.644 41.3806L170.769 44.017C170.126 44.8881 169.482 45.7593 168.838 46.6304C168.503 47.066 167.775 47.2035 167.243 46.9055C166.768 46.6533 166.6 46.1719 166.796 45.7822C167.215 44.8193 167.719 43.8794 168.223 42.9166C168.726 41.9767 169.258 41.0367 169.79 40.1197C170.349 39.2027 170.909 38.2628 171.525 37.3458C172.14 36.4288 172.728 35.5348 173.511 34.6178L173.539 34.5948C174.071 33.9529 175.134 33.7925 175.918 34.228C176.114 34.3427 176.282 34.4802 176.394 34.6407C177.121 35.5806 177.737 36.4747 178.353 37.3917C178.94 38.3087 179.528 39.2257 180.059 40.1656C180.619 41.0826 181.151 42.0225 181.627 42.9624C182.13 43.9023 182.634 44.8423 183.082 45.8051C183.222 46.3095 182.942 46.8597 182.326 47.0431Z" fill="#284B8E"/>
<path d="M172.176 11.8315C171.938 10.999 171.805 10.1924 171.725 9.38587C171.646 8.57932 171.619 7.74676 171.646 6.94021C171.672 5.3011 171.805 3.66199 172.203 2.02288C172.362 1.42447 172.972 1.06022 173.556 1.21633C173.981 1.3204 174.299 1.65863 174.379 2.0489C174.777 3.68801 174.883 5.32712 174.909 6.96623C174.936 7.77278 174.883 8.60534 174.803 9.41189C174.723 10.2184 174.591 11.051 174.352 11.8575C174.166 12.456 173.529 12.7942 172.919 12.6121C172.574 12.482 172.282 12.1698 172.176 11.8315Z" fill="#76348A"/>
<path d="M196.061 37.6807C195.767 38.1711 195.177 38.3775 194.686 38.1969C193.581 37.7839 192.5 37.3452 191.371 36.9838C190.265 36.5967 189.16 36.2354 188.055 35.8998C186.999 35.5901 185.918 35.3062 184.838 35.0481C185.55 36.416 186.311 37.8097 187.048 39.2034C187.711 40.4681 188.399 41.7328 189.037 43.049C189.651 44.3653 190.29 45.6816 190.806 47.0495C191.051 47.6689 190.781 48.3916 190.167 48.6497C189.627 48.882 189.037 48.6755 188.743 48.1851L184.248 40.9585C182.75 38.5324 181.277 36.0031 180.024 33.3447C179.582 32.4414 179.951 31.3574 180.81 30.8928C181.154 30.7122 181.522 30.6605 181.866 30.738C184.298 31.1767 186.704 31.822 189.013 32.7253C190.167 33.164 191.321 33.6544 192.427 34.1964C193.532 34.7642 194.612 35.332 195.668 36.0031C196.233 36.3386 196.405 37.1129 196.061 37.6807Z" fill="#116DB4"/>
<path d="M169.819 33.3149C168.54 36.0005 167.09 38.5311 165.59 40.9585L161.115 48.189C160.771 48.7571 160.034 48.912 159.493 48.5505C159.001 48.2148 158.829 47.5951 159.05 47.0528C159.566 45.6841 160.206 44.3672 160.82 43.0502C161.46 41.759 162.123 40.4679 162.812 39.2025C163.549 37.8081 164.312 36.4137 165.025 35.045C163.943 35.3033 162.886 35.5873 161.804 35.923C160.697 36.2587 159.591 36.6202 158.485 37.0076C157.354 37.3691 156.272 37.8081 155.165 38.2213C154.551 38.4537 153.887 38.118 153.666 37.4724C153.469 36.9043 153.69 36.3104 154.157 36.0263C155.19 35.3549 156.296 34.7868 157.403 34.2187C158.509 33.6764 159.64 33.1599 160.796 32.7468C163.107 31.843 165.516 31.1974 167.95 30.7326C168.885 30.5518 169.794 31.2232 169.967 32.2045C170.04 32.5918 169.967 32.9792 169.819 33.3149Z" fill="#2A2E68"/>
<path d="M191.438 40.6409C192.317 40.9958 193.082 41.4455 193.818 41.9425C194.555 42.4395 195.264 42.9602 195.915 43.5045C197.219 44.6168 198.465 45.8238 199.372 47.2438C199.684 47.7408 199.485 48.3324 198.89 48.6164C198.465 48.8057 197.984 48.7821 197.615 48.5691H197.587C196.085 47.6698 194.725 46.6521 193.422 45.6108C192.77 45.0901 192.147 44.5458 191.523 43.9778C190.928 43.4098 190.333 42.8182 189.852 42.1318C189.512 41.6585 189.682 41.0195 190.248 40.7355C190.617 40.4989 191.07 40.4989 191.438 40.6409Z" fill="#116DB4"/>
<path d="M159.965 40.8203C159.454 41.6411 158.886 42.3486 158.29 43.0278C157.693 43.707 157.04 44.358 156.387 44.9806C155.081 46.2258 153.747 47.4428 152.214 48.5182C151.674 48.9144 150.908 48.7729 150.538 48.2352C150.255 47.839 150.255 47.3579 150.453 46.9617C151.39 45.2636 152.611 43.8202 153.917 42.4901C154.57 41.8109 155.28 41.1882 155.99 40.5939C156.728 40.0279 157.495 39.4619 158.375 39.0374C158.971 38.7261 159.709 38.9808 160.022 39.5751C160.22 40.0279 160.192 40.4807 159.965 40.8203Z" fill="#2A2E68"/>
<path d="M183 9.60447C181.924 11.9679 180.743 14.2489 179.51 16.5299C178.276 18.7834 176.991 21.0095 175.679 23.2355C175.337 23.8126 174.734 24.1424 174.104 24.1424C173.448 24.1424 172.871 23.7852 172.53 23.2355C171.244 21.0095 169.958 18.7834 168.751 16.5024C168.121 15.3757 167.517 14.2489 166.94 13.0947C166.363 11.9404 165.759 10.7862 165.208 9.60447C164.893 8.97239 165.156 8.17541 165.785 7.87311C166.31 7.59829 166.966 7.76319 167.307 8.25786C168.068 9.27469 168.777 10.374 169.512 11.4183C170.22 12.4901 170.929 13.5619 171.637 14.6337C172.477 15.9253 173.291 17.2445 174.104 18.5636C174.891 17.2445 175.731 15.9253 176.571 14.6062C177.962 12.4351 179.379 10.319 180.927 8.25786C181.347 7.68074 182.134 7.59829 182.685 8.038C183.105 8.39527 183.236 9.08232 183 9.60447Z" fill="#76348A"/>
</svg>
